# xmcd
# 
# Track frame offsets:
#     150
#     21445
#     41121
#     62140
#     76823
#     106234
#     131716
#     149486
#     165832
#     189333
#     212559
#     232895
#     259225
#     276487
#     292519
#     316037
# 
# Disc length: 4608
# 
# Revision: 0
# Processed by: cddbd v1.5.2PL0 Copyright (c) Steve Scherf et al.
# Submitted via: BonkEnc v1.0.6
# 
DISCID=dc11fe10
DTITLE=Tom Waits - Used Songs
DYEAR=2001
DGENRE=
TTITLE0=Unknown1
TTITLE1=Unknown2
TTITLE2=Unknown3
TTITLE3=Unknown4
TTITLE4=Unknown5
TTITLE5=Unknown6
TTITLE6=Unknown7
TTITLE7=Unknown8
TTITLE8=Unknown9
TTITLE9=Unknown10
TTITLE10=Unknown11
TTITLE11=Unknown12
TTITLE12=Unknown13
TTITLE13=Unknown14
TTITLE14=Unknown15
TTITLE15=Unknown16
EXTD=YEAR: 2001
EXTT0=
EXTT1=
EXTT2=
EXTT3=
EXTT4=
EXTT5=
EXTT6=
EXTT7=
EXTT8=
EXTT9=
EXTT10=
EXTT11=
EXTT12=
EXTT13=
EXTT14=
EXTT15=
PLAYORDER=
